<svg width="56" height="56" viewBox="0 0 56 56" fill="none" xmlns="http://www.w3.org/2000/svg">
<g id="male 1">
<g id="Male Dental Patient">
<path id="Vector" d="M18.667 4.66667H38.0045C39.301 4.66667 40.5444 5.18169 41.4611 6.09843C42.3779 7.01517 42.8929 8.25854 42.8929 9.55501V19.075C42.8929 20.0156 42.5192 20.9178 41.8541 21.5829C41.189 22.248 40.2868 22.6217 39.3462 22.6217H16.5379C15.5972 22.6217 14.6951 22.248 14.03 21.5829C13.3649 20.9178 12.9912 20.0156 12.9912 19.075V10.325C12.9904 9.58025 13.1368 8.84269 13.422 8.15469C13.7072 7.4667 14.1255 6.84185 14.653 6.31604C15.1804 5.79023 15.8065 5.37384 16.4954 5.09078C17.1843 4.80773 17.9223 4.6636 18.667 4.66667Z" fill="#B44755"/>
<path id="Vector_2" d="M46.9528 55.4167H9.03613L10.1445 46.5908C10.3043 45.327 10.8517 44.1437 11.7114 43.2036C12.571 42.2635 13.7008 41.6128 14.9453 41.3408L28.0003 38.5L41.0436 41.3467C42.2882 41.6186 43.4179 42.2694 44.2776 43.2095C45.1372 44.1496 45.6846 45.3328 45.8445 46.5967L46.9528 55.4167Z" fill="#2E94A5"/>
<path id="Vector_3" d="M42.3561 52.9317H39.6145V55.4167H16.462V52.9317H13.6445C13.4523 52.9314 13.2625 52.8904 13.0873 52.8114C12.9122 52.7324 12.7558 52.6172 12.6285 52.4733C12.5012 52.3294 12.4058 52.1602 12.3486 51.9768C12.2915 51.7933 12.2739 51.5999 12.297 51.4092L12.7461 47.8683C12.856 46.9597 13.2032 46.096 13.753 45.3643C14.3028 44.6326 15.0357 44.0586 15.8779 43.7002C16.72 43.3418 17.6417 43.2117 18.5502 43.3228C19.4587 43.4339 20.3219 43.7825 21.0528 44.3333L26.2036 48.3233C26.7166 48.7245 27.3491 48.9424 28.0003 48.9424C28.6515 48.9424 29.284 48.7245 29.797 48.3233L34.9478 44.3333C35.6799 43.7821 36.5445 43.4338 37.4542 43.3235C38.364 43.2133 39.2868 43.345 40.1294 43.7053C40.972 44.0657 41.7046 44.6419 42.2533 45.3759C42.802 46.1099 43.1473 46.9757 43.2545 47.8858L43.7036 51.4208C43.7249 51.6107 43.706 51.8028 43.6481 51.9849C43.5901 52.1669 43.4944 52.3346 43.3673 52.4772C43.2401 52.6197 43.0844 52.7339 42.9102 52.8122C42.7359 52.8905 42.5471 52.9312 42.3561 52.9317Z" fill="#38C6A5"/>
<path id="Vector_4" d="M30.9169 49.7175C30.0902 50.357 29.0746 50.704 28.0294 50.704C26.9842 50.704 25.9686 50.357 25.1419 49.7175L22.0503 47.3492C21.8781 47.22 21.6736 47.141 21.4594 47.1208C21.2451 47.1007 21.0295 47.1402 20.8363 47.235C20.6431 47.3298 20.4798 47.4762 20.3647 47.6579C20.2495 47.8397 20.1868 48.0498 20.1836 48.265V52.5C20.1836 52.8094 20.3065 53.1062 20.5253 53.3249C20.7441 53.5437 21.0408 53.6667 21.3503 53.6667H34.6561C34.9655 53.6667 35.2623 53.5437 35.4811 53.3249C35.6998 53.1062 35.8228 52.8094 35.8228 52.5V48.265C35.8196 48.0498 35.7569 47.8397 35.6417 47.6579C35.5265 47.4762 35.3633 47.3298 35.1701 47.235C34.9769 47.1402 34.7613 47.1007 34.547 47.1208C34.3327 47.141 34.1282 47.22 33.9561 47.3492L30.9169 49.7175Z" fill="#6FE4A5"/>
<path id="Vector_5" d="M41.9014 24.535H14.5314C13.9183 24.5047 13.3403 24.2398 12.9171 23.7951C12.4939 23.3505 12.2578 22.7601 12.2578 22.1463C12.2578 21.5324 12.4939 20.942 12.9171 20.4974C13.3403 20.0527 13.9183 19.7878 14.5314 19.7575H41.9014C42.5145 19.7878 43.0925 20.0527 43.5157 20.4974C43.9389 20.942 44.175 21.5324 44.175 22.1463C44.175 22.7601 43.9389 23.3505 43.5157 23.7951C43.0925 24.2398 42.5145 24.5047 41.9014 24.535Z" fill="#FFB087"/>
<path id="Vector_6" d="M41.3066 19.7575H15.0449V24.5292H41.3066V19.7575Z" fill="#FF8873"/>
<path id="Vector_7" d="M32.772 39.515V40.7225L28.0003 44.4208L23.2286 40.7225V39.515L20.8486 40.0341V41.895L28.0003 47.4366L35.152 41.895V40.0341L32.772 39.515Z" fill="#FF8E6E"/>
<path id="Vector_8" d="M31.5001 41.6967L28.0001 44.4208L24.5001 41.6967L21.4609 42.3675L28.0001 47.4367L34.5451 42.3675L31.5001 41.6967Z" fill="#FFCA6E"/>
<path id="Vector_9" d="M32.7718 32.5267V40.7225L28.0002 44.4208L23.2285 40.7225V32.5267H32.7718Z" fill="#FFB087"/>
<path id="Vector_10" d="M32.7719 32.5267V36.75C32.7721 37.1475 32.6813 37.5398 32.5064 37.8968C32.3314 38.2537 32.077 38.5658 31.7627 38.8092L29.9544 40.2092C29.3955 40.6434 28.7079 40.8791 28.0002 40.8791C27.2925 40.8791 26.6049 40.6434 26.046 40.2092L24.6869 39.1592C24.2315 38.8048 23.8633 38.3508 23.6105 37.8321C23.3578 37.3134 23.2271 36.7437 23.2285 36.1667V32.5267H32.7719Z" fill="#FF8873"/>
<path id="Vector_11" d="M40.0932 19.4425V24.5408C40.0932 33.2091 31.5007 39.3516 23.4507 36.0558C23.0518 35.9021 22.6296 35.8173 22.2023 35.805C20.7457 35.712 19.3769 35.0762 18.366 34.0233C17.3552 32.9703 16.7759 31.5767 16.7423 30.1175C16.7545 29.6511 16.6895 29.1859 16.5498 28.7408C16.1236 27.4879 15.9068 26.1734 15.9082 24.85C15.9082 19.5358 15.8382 18.97 16.1182 17.4941C16.5982 14.4948 18.192 11.787 20.5813 9.91149C22.9706 8.03598 25.9795 7.13085 29.007 7.37688C32.0345 7.62291 34.8578 9.00199 36.9129 11.2387C38.968 13.4754 40.1037 16.405 40.0932 19.4425Z" fill="#FFDDBE"/>
<path id="Vector_12" d="M39.5039 15.715H34.1548C32.5129 15.7214 30.9023 16.1643 29.4881 16.9983C28.4976 17.586 27.3673 17.8963 26.2156 17.8967H18.0839C17.4026 17.8956 16.7284 17.7588 16.1006 17.4942C16.5335 14.8197 17.8545 12.369 19.8507 10.5372C21.8468 8.70533 24.4017 7.59915 27.1034 7.39697C29.8051 7.1948 32.4962 7.90842 34.7427 9.42277C36.9892 10.9371 38.6603 13.1639 39.4864 15.7442L39.5039 15.715Z" fill="#FFBFA5"/>
<path id="Vector_13" d="M44.9752 5.69331V8.44665C44.9737 9.80089 44.4346 11.0991 43.4765 12.0562C42.5183 13.0132 41.2194 13.5508 39.8652 13.5508H34.1544C32.5801 13.5487 31.0316 13.9504 29.6569 14.7175C28.6191 15.3696 27.4232 15.7266 26.1977 15.75H18.0835C15.1669 15.75 12.4719 13.2416 13.0494 9.51415C13.3217 7.38549 14.3603 5.42898 15.9708 4.01066C17.5813 2.59235 19.6534 1.8094 21.7994 1.80831C24.7802 1.80831 26.2327 1.97748 28.7119 0.968313C29.324 0.714587 29.9801 0.58377 30.6427 0.583313H39.8652C41.2205 0.583313 42.5202 1.12169 43.4785 2.08C44.4368 3.03831 44.9752 4.33806 44.9752 5.69331Z" fill="#FF796E"/>
<path id="Vector_14" d="M44.9752 8.44663C44.9737 9.80088 44.4346 11.0991 43.4765 12.0562C42.5183 13.0132 41.2195 13.5508 39.8652 13.5508H34.1544C32.5801 13.5487 31.0316 13.9504 29.6569 14.7175C28.6191 15.3696 27.4232 15.7266 26.1977 15.75H18.0835C15.1669 15.75 12.4719 13.2416 13.0494 9.51413C13.1194 9.04746 13.1252 9.0008 13.1952 8.6858C13.526 9.72197 14.178 10.6259 15.0569 11.2667C15.9358 11.9076 16.9959 12.2519 18.0835 12.25H26.1977C27.3489 12.2514 28.4792 11.9431 29.4702 11.3575C30.8844 10.5234 32.495 10.0805 34.1369 10.0741H39.8477C41.1387 10.0746 42.382 9.58648 43.3278 8.70779C44.2736 7.8291 44.8517 6.62499 44.946 5.33746C44.981 5.66996 44.9752 5.3608 44.9752 8.44663Z" fill="#FF476E"/>
<path id="Vector_15" d="M40.5424 8.51662C41.2578 8.47045 41.9284 8.15218 42.4165 7.62715C42.9047 7.10213 43.1733 6.41016 43.1674 5.69329C43.1674 4.81145 42.8171 3.96572 42.1935 3.34216C41.57 2.7186 40.7242 2.36829 39.8424 2.36829H35.4965C35.0869 2.36735 34.6865 2.49002 34.3477 2.72027C34.0088 2.95051 33.7473 3.27762 33.5974 3.65884C33.4474 4.04006 33.4159 4.45765 33.5071 4.85704C33.5982 5.25643 33.8077 5.61903 34.1082 5.89746C35.9515 7.58329 38.0282 8.62746 40.5424 8.51662Z" fill="#FFBAA0"/>
<path id="Vector_16" d="M23.0071 22.6217C22.8524 22.6217 22.704 22.5602 22.5946 22.4508C22.4852 22.3414 22.4238 22.193 22.4238 22.0383V21.14C22.4238 20.9853 22.4852 20.8369 22.5946 20.7275C22.704 20.6181 22.8524 20.5567 23.0071 20.5567C23.1618 20.5567 23.3102 20.6181 23.4196 20.7275C23.529 20.8369 23.5905 20.9853 23.5905 21.14V22.0267C23.592 22.1043 23.5781 22.1814 23.5494 22.2535C23.5208 22.3256 23.4781 22.3913 23.4238 22.4467C23.3695 22.5021 23.3046 22.5461 23.2331 22.5762C23.1615 22.6062 23.0847 22.6217 23.0071 22.6217ZM32.9938 22.6217C32.8391 22.6217 32.6907 22.5602 32.5813 22.4508C32.4719 22.3414 32.4105 22.193 32.4105 22.0383V21.14C32.4105 20.9853 32.4719 20.8369 32.5813 20.7275C32.6907 20.6181 32.8391 20.5567 32.9938 20.5567C33.1485 20.5567 33.2969 20.6181 33.4063 20.7275C33.5157 20.8369 33.5771 20.9853 33.5771 21.14V22.0267C33.5787 22.1043 33.5647 22.1814 33.5361 22.2535C33.5075 22.3256 33.4648 22.3913 33.4104 22.4467C33.3561 22.5021 33.2913 22.5461 33.2197 22.5762C33.1482 22.6062 33.0714 22.6217 32.9938 22.6217ZM20.2013 19.8858C20.0619 19.8999 19.922 19.8632 19.8074 19.7826C19.6928 19.702 19.611 19.5829 19.577 19.4469C19.543 19.311 19.5591 19.1673 19.6223 19.0423C19.6855 18.9172 19.7917 18.8191 19.9213 18.7658L22.838 17.2375C22.9073 17.2011 22.9831 17.1787 23.0611 17.1717C23.139 17.1646 23.2177 17.1729 23.2924 17.1962C23.3672 17.2195 23.4366 17.2573 23.4967 17.3074C23.5569 17.3575 23.6066 17.419 23.643 17.4883C23.6793 17.5577 23.7017 17.6335 23.7088 17.7115C23.7159 17.7894 23.7075 17.868 23.6843 17.9428C23.661 18.0175 23.6232 18.087 23.5731 18.1471C23.5229 18.2073 23.4614 18.257 23.3921 18.2933C20.2421 19.9442 20.4171 19.8858 20.2013 19.8858ZM35.6421 19.8858C35.438 19.8858 35.6013 19.9442 32.4571 18.2933C32.3878 18.255 32.3267 18.2035 32.2773 18.1415C32.2279 18.0796 32.1912 18.0086 32.1693 17.9325C32.1473 17.8564 32.1406 17.7767 32.1494 17.698C32.1583 17.6193 32.1826 17.5431 32.2209 17.4738C32.2592 17.4044 32.3108 17.3433 32.3727 17.2939C32.4346 17.2445 32.5056 17.2078 32.5817 17.1859C32.6578 17.164 32.7375 17.1572 32.8162 17.1661C32.8949 17.1749 32.9711 17.1992 33.0405 17.2375L35.9571 18.7658C36.0955 18.8161 36.2097 18.9168 36.277 19.0478C36.3442 19.1788 36.3594 19.3303 36.3195 19.4721C36.2797 19.6138 36.1877 19.7352 36.0621 19.8119C35.9364 19.8887 35.7864 19.9151 35.6421 19.8858ZM25.7021 32.4683C25.5786 32.4753 25.456 32.4428 25.3522 32.3755C25.2483 32.3082 25.1686 32.2097 25.1244 32.0941C25.0803 31.9785 25.074 31.8519 25.1065 31.7325C25.1391 31.6131 25.2087 31.5072 25.3055 31.43C26.0487 30.7833 27.0007 30.4271 27.9859 30.4271C28.9711 30.4271 29.9231 30.7833 30.6663 31.43C30.7253 31.4809 30.7736 31.543 30.8086 31.6126C30.8436 31.6823 30.8646 31.7581 30.8703 31.8359C30.876 31.9136 30.8663 31.9917 30.8418 32.0657C30.8173 32.1397 30.7785 32.2081 30.7275 32.2671C30.6766 32.3261 30.6145 32.3744 30.5449 32.4094C30.4753 32.4444 30.3994 32.4654 30.3217 32.4711C30.244 32.4768 30.1659 32.4671 30.0919 32.4426C30.0179 32.4181 29.9494 32.3793 29.8905 32.3283C29.3586 31.8815 28.6863 31.6366 27.9917 31.6366C27.2971 31.6366 26.6248 31.8815 26.093 32.3283C25.9843 32.4214 25.8452 32.4712 25.7021 32.4683Z" fill="#302D3D"/>
<path id="Vector_17" d="M25.2533 34.5275C25.1555 34.5303 25.0586 34.5086 24.9715 34.4642C24.8843 34.4199 24.8097 34.3543 24.7545 34.2735C24.6994 34.1928 24.6654 34.0995 24.6557 34.0022C24.646 33.9049 24.6609 33.8067 24.6991 33.7166C25.021 32.8929 25.1096 31.9964 24.9554 31.1256C24.8011 30.2548 24.4098 29.4433 23.8246 28.7803C23.2393 28.1173 22.4827 27.6284 21.6377 27.3672C20.7928 27.1061 19.8922 27.0828 19.0349 27.3C18.8802 27.3394 18.7162 27.3158 18.5789 27.2343C18.4416 27.1528 18.3423 27.0201 18.3028 26.8654C18.2634 26.7107 18.287 26.5466 18.3685 26.4093C18.45 26.2721 18.5827 26.1728 18.7374 26.1333C19.8091 25.8592 20.9356 25.8866 21.9927 26.2124C23.0498 26.5381 23.9963 27.1497 24.7277 27.9795C25.4592 28.8093 25.9471 29.8251 26.1376 30.9147C26.3281 32.0043 26.2139 33.1254 25.8074 34.1541C25.7644 34.2656 25.6882 34.3612 25.5891 34.428C25.49 34.4948 25.3728 34.5295 25.2533 34.5275Z" fill="#FFB087"/>
<path id="Vector_18" d="M22.9661 32.0483C22.836 32.0535 22.7078 32.015 22.6021 31.9389C22.4964 31.8627 22.4192 31.7534 22.3828 31.6283C22.2543 31.2294 22.0472 30.8602 21.7737 30.5426C21.5001 30.225 21.1658 29.9654 20.7903 29.7792C20.719 29.7457 20.6552 29.6981 20.6028 29.6392C20.5504 29.5804 20.5105 29.5116 20.4854 29.4369C20.4603 29.3622 20.4507 29.2832 20.4569 29.2047C20.4632 29.1262 20.4853 29.0497 20.522 28.98C20.5555 28.9087 20.6031 28.8449 20.6619 28.7925C20.7207 28.7401 20.7896 28.7002 20.8642 28.6751C20.9389 28.65 21.0179 28.6404 21.0964 28.6466C21.175 28.6529 21.2514 28.675 21.3211 28.7117C21.8411 28.9686 22.3039 29.3279 22.6818 29.7679C23.0597 30.2079 23.3449 30.7197 23.5203 31.2725C23.5511 31.3607 23.5603 31.455 23.5471 31.5475C23.5339 31.64 23.4986 31.728 23.4443 31.8041C23.39 31.8801 23.3182 31.942 23.235 31.9845C23.1518 32.027 23.0596 32.0489 22.9661 32.0483Z" fill="#FFB087"/>
<path id="Vector_19" d="M34.1547 13.5508C32.5805 13.5487 31.032 13.9504 29.6572 14.7175H26.6181C26.4634 14.7175 26.315 14.656 26.2056 14.5466C26.0962 14.4372 26.0347 14.2888 26.0347 14.1341C26.0347 13.9794 26.0962 13.831 26.2056 13.7216C26.315 13.6122 26.4634 13.5508 26.6181 13.5508H34.1547ZM22.5697 14.7466H21.2747C21.12 14.7466 20.9717 14.6852 20.8623 14.5758C20.7529 14.4664 20.6914 14.318 20.6914 14.1633C20.6914 14.0086 20.7529 13.8602 20.8623 13.7508C20.9717 13.6414 21.12 13.58 21.2747 13.58H22.5697C22.7244 13.58 22.8728 13.6414 22.9822 13.7508C23.0916 13.8602 23.1531 14.0086 23.1531 14.1633C23.1531 14.318 23.0916 14.4664 22.9822 14.5758C22.8728 14.6852 22.7244 14.7466 22.5697 14.7466Z" fill="#C8296E"/>
<path id="Vector_20" d="M40.25 55.4166H39.0833L38.8383 49.7816C38.8321 49.6269 38.8877 49.4761 38.9927 49.3623C39.0977 49.2486 39.2436 49.1812 39.3983 49.175C39.553 49.1688 39.7039 49.2243 39.8176 49.3293C39.9314 49.4343 39.9988 49.5803 40.005 49.735C40.2908 56.1575 40.25 55.3466 40.25 55.4166ZM15.75 55.4166C15.75 55.3466 15.75 55.4166 15.995 49.735C15.9948 49.6548 16.0111 49.5755 16.043 49.5019C16.0748 49.4283 16.1215 49.3621 16.18 49.3074C16.2386 49.2526 16.3078 49.2105 16.3834 49.1837C16.4589 49.157 16.5392 49.146 16.6192 49.1516C16.6988 49.1515 16.7776 49.1677 16.8508 49.1991C16.9239 49.2306 16.9899 49.2767 17.0445 49.3347C17.0992 49.3926 17.1414 49.4611 17.1686 49.536C17.1957 49.6108 17.2073 49.6905 17.2025 49.77L16.9167 55.4166H15.75Z" fill="#2E94A5"/>
</g>
</g>
</svg>
